<svg width="40" height="40" viewBox="0 0 40 40" fill="none" xmlns="http://www.w3.org/2000/svg">
<mask id="mask0_6763_13" style="mask-type:alpha" maskUnits="userSpaceOnUse" x="0" y="0" width="40" height="40">
<rect width="40" height="40" fill="#C4C4C4"/>
</mask>
<g mask="url(#mask0_6763_13)">
<path d="M36.6041 34.044H37.2297V34.4423H28.7449V34.0838H29.3314C29.7745 34.0838 30.1525 33.9112 30.4653 33.5659C30.7781 33.1941 30.9084 32.7958 30.8563 32.3709L29.0968 12.3338L20.8856 30.9368C20.1557 32.5568 19.7126 33.9112 19.5562 35H19.1652L9.15542 12.8915L7.47409 32.3709C7.42196 32.7958 7.55229 33.1941 7.8651 33.5659C8.17791 33.9112 8.54285 34.0838 8.95992 34.0838H9.58553V34.4423H2V34.044H2.62561C3.35549 34.044 3.9811 33.8182 4.50244 33.3668C5.04985 32.9153 5.37569 32.3045 5.47996 31.5343L8.41251 6H8.80352L19.7126 30.0206L30.3871 6H30.739L33.7497 31.5343C33.8801 32.5966 34.4014 33.3402 35.3138 33.7651C35.7048 33.951 36.1349 34.044 36.6041 34.044ZM47.1182 11.5769C49.1254 10.5147 51.328 9.98352 53.7262 9.98352C56.1506 9.98352 58.3663 10.5147 60.3735 11.5769C62.3807 12.6126 63.9708 14.0865 65.1438 15.9986C66.3429 17.9107 66.9424 20.0751 66.9424 22.4918C66.9424 24.9084 66.3429 27.0728 65.1438 28.9849C63.9708 30.897 62.3807 32.3842 60.3735 33.4464C58.3663 34.4821 56.307 35 54.1954 35C52.084 35 50.2202 34.6946 48.604 34.0838C46.9879 33.473 45.5802 32.6232 44.3812 31.5343C43.2081 30.4455 42.2697 29.1177 41.5659 27.5508C40.8882 25.984 40.5493 24.1516 40.5493 22.0536C40.5493 19.929 41.1358 17.9107 42.3088 15.9986C43.5079 14.0865 45.111 12.6126 47.1182 11.5769ZM46.3753 30.658C48.3564 32.7559 50.8067 33.8049 53.7262 33.8049C56.6459 33.8049 59.0962 32.7559 61.0773 30.658C63.0584 28.5334 64.049 25.8114 64.049 22.4918C64.049 19.1722 63.0584 16.4634 61.0773 14.3654C59.0962 12.2408 56.6459 11.1786 53.7262 11.1786C50.8067 11.1786 48.3564 12.2408 46.3753 14.3654C44.4203 16.4634 43.4427 19.1722 43.4427 22.4918C43.4427 25.8114 44.4203 28.5334 46.3753 30.658ZM78.5716 11.5769C80.5788 10.5147 82.7814 9.98352 85.1796 9.98352C87.6038 9.98352 89.8196 10.5147 91.8267 11.5769C93.8339 12.6126 95.424 14.0865 96.597 15.9986C97.7961 17.9107 98.3956 20.0751 98.3956 22.4918C98.3956 24.9084 97.7961 27.0728 96.597 28.9849C95.424 30.897 93.8339 32.3842 91.8267 33.4464C89.8196 34.4821 87.7603 35 85.6488 35C83.5374 35 81.6736 34.6946 80.0574 34.0838C78.4413 33.473 77.0336 32.6232 75.834 31.5343C74.6615 30.4455 73.7231 29.1177 73.0193 27.5508C72.341 25.984 72.0021 24.1516 72.0021 22.0536C72.0021 19.929 72.5887 17.9107 73.7622 15.9986C74.9608 14.0865 76.5644 12.6126 78.5716 11.5769ZM77.8287 30.658C79.8098 32.7559 82.2601 33.8049 85.1796 33.8049C88.0991 33.8049 90.5494 32.7559 92.5305 30.658C94.5116 28.5334 95.5022 25.8114 95.5022 22.4918C95.5022 19.1722 94.5116 16.4634 92.5305 14.3654C90.5494 12.2408 88.0991 11.1786 85.1796 11.1786C82.2601 11.1786 79.8098 12.2408 77.8287 14.3654C75.8737 16.4634 74.8961 19.1722 74.8961 22.4918C74.8961 25.8114 75.8737 28.5334 77.8287 30.658ZM129.736 10.9396C129.162 10.9396 128.667 11.1387 128.25 11.5371C127.833 11.9089 127.611 12.3736 127.585 12.9313V29.9011C127.585 31.4414 127.677 32.902 127.859 34.283L127.937 35H127.585L107.253 15.3613V31.9725C107.253 32.5568 107.462 33.0481 107.879 33.4464C108.296 33.8448 108.804 34.044 109.404 34.044H110.068V34.4423H102.678V34.044H103.343C103.942 34.044 104.451 33.8448 104.868 33.4464C105.285 33.0481 105.493 32.5568 105.493 31.9725V14.9231C105.493 13.3031 105.402 11.8558 105.22 10.581L105.142 9.94368L105.572 9.98352L125.865 29.4629V12.9313C125.813 12.3736 125.578 11.9089 125.161 11.5371C124.744 11.1387 124.249 10.9396 123.675 10.9396H123.011V10.5412H130.401V10.9396H129.736ZM154.303 7.79258H151.8V31.5343C151.8 32.2248 152.035 32.8223 152.504 33.3269C152.999 33.8049 153.599 34.044 154.303 34.044H154.772L154.811 34.4423H146.248V34.044H146.756C147.434 34.044 148.007 33.8049 148.477 33.3269C148.972 32.8489 149.232 32.2647 149.259 31.5742V9.46566C149.232 8.77518 148.972 8.19093 148.477 7.71291C148.007 7.20833 147.434 6.95604 146.756 6.95604H146.248V6.55769H156.805C159.177 6.55769 161.041 7.23489 162.396 8.58929C163.752 9.91712 164.43 11.6566 164.43 13.8077C164.43 15.9322 163.778 17.7779 162.475 19.3448C161.197 20.8851 159.633 21.6552 157.782 21.6552C158.173 21.8411 158.63 22.2129 159.151 22.7706C159.698 23.3017 160.181 23.8594 160.598 24.4437C162.84 27.7102 164.299 29.7285 164.977 30.4986C165.655 31.2422 166.137 31.7601 166.424 32.0522C166.71 32.3178 167.023 32.5833 167.362 32.8489C167.701 33.1145 168.04 33.3269 168.379 33.4863C169.135 33.8581 169.943 34.044 170.803 34.044V34.4423H168.652C167.532 34.4423 166.489 34.2431 165.524 33.8448C164.56 33.4199 163.83 32.995 163.335 32.5701C162.866 32.1186 162.449 31.6937 162.084 31.2953C161.745 30.8704 160.78 29.4895 159.19 27.1525C157.6 24.8155 156.675 23.4876 156.414 23.169C156.153 22.8237 155.88 22.4918 155.593 22.1731C154.759 21.2701 153.925 20.8187 153.09 20.8187V20.4203C153.299 20.4469 153.573 20.4602 153.912 20.4602C154.25 20.4602 154.667 20.4469 155.163 20.4203C158.395 20.3407 160.428 18.9597 161.262 16.2775C161.419 15.7463 161.497 15.255 161.497 14.8036C161.497 14.3255 161.497 14.0201 161.497 13.8874C161.445 12.1081 160.989 10.674 160.129 9.58517C159.268 8.49634 158.108 7.91209 156.649 7.83242C156.023 7.80586 155.241 7.79258 154.303 7.79258ZM173.051 34.044C173.755 34.044 174.367 33.8315 174.889 33.4066C175.41 32.9817 175.671 32.4771 175.671 31.8929V13.0907C175.671 12.5064 175.41 12.0018 174.889 11.5769C174.367 11.152 173.742 10.9396 173.012 10.9396H172.503V10.5412H181.34V10.9396H180.832C180.128 10.9396 179.515 11.1387 178.994 11.5371C178.499 11.9354 178.225 12.4267 178.173 13.011V31.9327C178.199 32.5169 178.473 33.0215 178.994 33.4464C179.515 33.8448 180.128 34.044 180.832 34.044H181.34L181.379 34.4423H172.503V34.044H173.051ZM210.819 10.9396H210.506C209.933 10.9396 209.373 11.1387 208.825 11.5371C208.278 11.9089 207.809 12.4799 207.418 13.25C201.735 25.6786 198.776 32.185 198.542 32.7692C198.099 33.8846 197.864 34.6282 197.838 35H197.486L187.828 13.2898C187.072 11.723 186.069 10.9396 184.817 10.9396H184.505V10.5412H192.52V10.9396H192.207C191.712 10.9396 191.334 11.1255 191.073 11.4973C190.839 11.8425 190.722 12.1612 190.722 12.4533C190.722 12.7454 190.761 13.0508 190.839 13.3695L197.838 30.7376L205.032 13.4492C205.163 13.1039 205.228 12.7853 205.228 12.4931C205.228 12.1744 205.098 11.8425 204.837 11.4973C204.576 11.1255 204.185 10.9396 203.664 10.9396H203.39V10.5412H210.819V10.9396ZM214.459 34.044C215.085 34.044 215.606 33.8448 216.023 33.4464C216.467 33.0215 216.701 32.5169 216.727 31.9327V13.011C216.727 12.4267 216.506 11.9354 216.063 11.5371C215.619 11.1387 215.085 10.9396 214.459 10.9396H213.912V10.5412H225.329C226.398 10.5412 227.337 10.4615 228.145 10.3022C228.953 10.1429 229.474 10.0101 229.709 9.90385V14.4451L229.279 14.4052V13.8077C229.279 13.25 229.096 12.772 228.731 12.3736C228.366 11.9753 227.897 11.7761 227.324 11.7761H219.191V21.8942H225.877C226.398 21.8942 226.789 21.7349 227.05 21.4162C227.337 21.0975 227.48 20.6992 227.48 20.2212V19.7033H227.91V25.2802H227.48V24.7624C227.48 24.0188 227.206 23.5142 226.659 23.2486C226.45 23.169 226.229 23.1158 225.994 23.0893H219.191V33.2074H225.329C226.529 33.2074 227.532 32.995 228.34 32.5701C229.174 32.1451 229.8 31.6406 230.217 31.0563C230.66 30.4721 231.103 29.7019 231.546 28.7459H231.937L229.787 34.4423H213.912V34.044H214.459ZM243.36 11.7761H241.287V31.8929C241.313 32.7161 241.678 33.3402 242.382 33.7651C242.721 33.951 243.099 34.044 243.516 34.044H244.024L244.064 34.4423H236.048V34.044H236.595C237.195 34.044 237.703 33.8448 238.12 33.4464C238.563 33.0215 238.785 32.5169 238.785 31.9327V13.011C238.785 12.4267 238.563 11.9354 238.12 11.5371C237.703 11.1387 237.195 10.9396 236.595 10.9396H236.048V10.5412H245.862C248.312 10.5412 250.241 11.1122 251.649 12.2541C253.083 13.3961 253.8 14.8965 253.8 16.7555C253.8 18.6145 253.226 20.168 252.079 21.4162C250.932 22.6644 249.472 23.3814 247.7 23.5673C248.534 23.9391 249.538 24.9748 250.711 26.6744C250.685 26.6744 251.128 27.2587 252.04 28.4272C252.979 29.5957 253.721 30.5119 254.269 31.1758C254.842 31.8132 255.312 32.3045 255.676 32.6497C256.641 33.5792 257.749 34.044 259 34.044V34.4423H257.788C255.729 34.4423 254.112 34.0307 252.939 33.2074C252.053 32.5966 251.245 31.8397 250.515 30.9368C250.359 30.7244 249.694 29.7949 248.521 28.1483C247.374 26.4753 246.762 25.5856 246.683 25.4794C245.276 23.7001 243.959 22.8104 242.734 22.8104V22.4121C245.784 22.4121 247.622 22.2527 248.247 21.9341C249.108 21.4826 249.694 21.0046 250.007 20.5C250.659 19.4377 250.984 18.2692 250.984 16.9945C250.984 15.3745 250.515 14.1264 249.577 13.25C248.638 12.3736 247.374 11.8956 245.784 11.8159C245.08 11.7894 244.272 11.7761 243.36 11.7761Z" fill="#272727"/>
</g>
</svg>
