<svg width="40" height="40" fill="none" xmlns="http://www.w3.org/2000/svg"><mask id="mask0_6763_13" style="mask-type:alpha" maskUnits="userSpaceOnUse" x="0" y="0" width="40" height="40"><path fill="#C4C4C4" d="M0 0h40v40H0z"/></mask><g mask="url(#mask0_6763_13)"><path d="M36.604 34.044h.626v.398h-8.485v-.358h.586c.444 0 .822-.173 1.134-.518.313-.372.443-.77.391-1.195l-1.76-20.037-8.21 18.603c-.73 1.62-1.173 2.974-1.33 4.063h-.39L9.155 12.892 7.473 32.37c-.052.425.078.823.391 1.195.313.345.678.518 1.095.518h.626v.358H2v-.398h.626c.73 0 1.355-.226 1.876-.677.548-.452.874-1.063.978-1.833L8.413 6h.39l10.91 24.02L30.387 6h.352l3.01 25.534c.131 1.063.652 1.806 1.565 2.231.39.186.82.279 1.29.279zm10.514-22.467c2.007-1.062 4.21-1.593 6.608-1.593 2.425 0 4.64.53 6.648 1.593a11.883 11.883 0 014.77 4.422c1.199 1.912 1.798 4.076 1.798 6.493 0 2.416-.6 4.58-1.798 6.493a12.159 12.159 0 01-4.77 4.461C58.365 34.482 56.306 35 54.194 35c-2.111 0-3.975-.305-5.591-.916s-3.024-1.46-4.223-2.55c-1.173-1.088-2.111-2.416-2.815-3.983-.678-1.567-1.017-3.4-1.017-5.497 0-2.125.587-4.143 1.76-6.055a12.158 12.158 0 014.81-4.422zm-.743 19.081c1.981 2.098 4.432 3.147 7.351 3.147 2.92 0 5.37-1.05 7.351-3.147 1.981-2.125 2.972-4.847 2.972-8.166 0-3.32-.99-6.029-2.972-8.127-1.98-2.124-4.431-3.186-7.35-3.186-2.92 0-5.37 1.062-7.352 3.186-1.955 2.098-2.932 4.807-2.932 8.127 0 3.32.977 6.041 2.932 8.166zm32.197-19.081c2.007-1.062 4.21-1.593 6.608-1.593 2.424 0 4.64.53 6.647 1.593a11.883 11.883 0 014.77 4.422c1.2 1.912 1.799 4.076 1.799 6.493 0 2.416-.6 4.58-1.799 6.493a12.159 12.159 0 01-4.77 4.461C89.82 34.482 87.76 35 85.649 35c-2.112 0-3.975-.305-5.592-.916-1.616-.611-3.023-1.46-4.223-2.55-1.172-1.088-2.11-2.416-2.815-3.983-.678-1.567-1.017-3.4-1.017-5.497 0-2.125.587-4.143 1.76-6.055a12.155 12.155 0 014.81-4.422zm-.743 19.081c1.98 2.098 4.431 3.147 7.35 3.147 2.92 0 5.37-1.05 7.352-3.147 1.98-2.125 2.971-4.847 2.971-8.166 0-3.32-.99-6.029-2.971-8.127-1.982-2.124-4.432-3.186-7.351-3.186-2.92 0-5.37 1.062-7.351 3.186-1.955 2.098-2.933 4.807-2.933 8.127 0 3.32.978 6.041 2.933 8.166zm51.907-19.718c-.574 0-1.069.199-1.486.597a1.918 1.918 0 00-.665 1.394v16.97c0 1.54.092 3.001.274 4.382l.078.717h-.352l-20.332-19.639v16.611c0 .585.209 1.076.626 1.474.417.399.925.598 1.525.598h.664v.398h-7.39v-.398h.665c.599 0 1.108-.2 1.525-.598.417-.398.625-.89.625-1.473v-17.05c0-1.62-.091-3.067-.273-4.342l-.078-.637.43.04 20.293 19.479V12.93a2.062 2.062 0 00-.704-1.394 2.077 2.077 0 00-1.486-.597h-.664v-.399h7.39v.399h-.665zm24.567-3.147H151.8v23.741c0 .69.235 1.288.704 1.793a2.495 2.495 0 001.799.717h.469l.039.398h-8.563v-.398h.508a2.32 2.32 0 001.721-.717 2.485 2.485 0 00.782-1.753V9.466a2.485 2.485 0 00-.782-1.753c-.47-.505-1.043-.757-1.721-.757h-.508v-.398h10.557c2.372 0 4.236.677 5.591 2.031 1.356 1.328 2.034 3.068 2.034 5.219 0 2.124-.652 3.97-1.955 5.537-1.278 1.54-2.842 2.31-4.693 2.31.391.186.848.558 1.369 1.116.547.53 1.03 1.088 1.447 1.673 2.242 3.266 3.701 5.285 4.379 6.055.678.743 1.16 1.261 1.447 1.553.286.266.599.531.938.797.339.266.678.478 1.017.637a5.42 5.42 0 002.424.558v.398h-2.151a8.124 8.124 0 01-3.128-.597c-.964-.425-1.694-.85-2.189-1.275a28.656 28.656 0 01-1.251-1.275c-.339-.425-1.304-1.806-2.894-4.143-1.59-2.337-2.515-3.664-2.776-3.983a15.022 15.022 0 00-.821-.996c-.834-.903-1.668-1.354-2.503-1.354v-.399c.209.027.483.04.822.04.338 0 .755-.013 1.251-.04 3.232-.08 5.265-1.46 6.099-4.143a5.224 5.224 0 00.235-1.473v-.917c-.052-1.779-.508-3.213-1.368-4.302-.861-1.089-2.021-1.673-3.48-1.753a57.045 57.045 0 00-2.346-.04zm18.748 26.251c.704 0 1.316-.212 1.838-.637.521-.425.782-.93.782-1.514V13.09c0-.585-.261-1.09-.782-1.514-.522-.425-1.147-.637-1.877-.637h-.509v-.399h8.837v.399h-.508c-.704 0-1.317.199-1.838.597-.495.398-.769.89-.821 1.474v18.922c.026.584.3 1.089.821 1.513.521.399 1.134.598 1.838.598h.508l.039.398h-8.876v-.398h.548zm37.768-23.104h-.313c-.573 0-1.133.199-1.681.597-.547.372-1.016.943-1.407 1.713-5.683 12.429-8.642 18.935-8.876 19.52-.443 1.115-.678 1.858-.704 2.23h-.352l-9.658-21.71c-.756-1.567-1.759-2.35-3.011-2.35h-.312v-.399h8.015v.399h-.313c-.495 0-.873.186-1.134.557-.234.345-.351.664-.351.956 0 .292.039.598.117.917l6.999 17.368 7.194-17.289a2.71 2.71 0 00.196-.956c0-.319-.13-.65-.391-.996-.261-.371-.652-.557-1.173-.557h-.274v-.399h7.429v.399zm3.64 23.104c.626 0 1.147-.2 1.564-.598.444-.424.678-.93.704-1.513V13.01c0-.584-.221-1.076-.664-1.474-.444-.398-.978-.597-1.604-.597h-.547v-.399h11.417c1.069 0 2.008-.08 2.816-.239.808-.16 1.329-.292 1.564-.398v4.541l-.43-.04v-.597a2.05 2.05 0 00-.548-1.434c-.365-.399-.834-.598-1.407-.598h-8.133v10.118h6.686c.521 0 .912-.16 1.173-.478.287-.319.43-.717.43-1.195v-.518h.43v5.577h-.43v-.518c0-.743-.274-1.248-.821-1.513a2.712 2.712 0 00-.665-.16h-6.803v10.118h6.138c1.2 0 2.203-.212 3.011-.637.834-.425 1.46-.93 1.877-1.514.443-.584.886-1.354 1.329-2.31h.391l-2.15 5.696h-15.875v-.398h.547zm28.901-22.268h-2.073v20.117c.026.823.391 1.447 1.095 1.872a2.32 2.32 0 001.134.279h.508l.04.398h-8.016v-.398h.547c.6 0 1.108-.2 1.525-.598.443-.424.665-.93.665-1.513V13.01c0-.584-.222-1.076-.665-1.474-.417-.398-.925-.597-1.525-.597h-.547v-.399h9.814c2.45 0 4.379.571 5.787 1.713 1.434 1.142 2.151 2.643 2.151 4.502 0 1.858-.574 3.412-1.721 4.66-1.147 1.248-2.607 1.965-4.379 2.151.834.372 1.838 1.408 3.011 3.107-.026 0 .417.585 1.329 1.753a289.753 289.753 0 002.229 2.749 26.9 26.9 0 001.407 1.474c.965.93 2.073 1.394 3.324 1.394v.398h-1.212c-2.059 0-3.676-.411-4.849-1.235a11.553 11.553 0 01-2.424-2.27c-.156-.213-.821-1.142-1.994-2.789a311.597 311.597 0 00-1.838-2.669c-1.407-1.779-2.724-2.669-3.949-2.669v-.398c3.05 0 4.888-.16 5.513-.478.861-.451 1.447-.93 1.76-1.434a6.572 6.572 0 00.977-3.506c0-1.62-.469-2.868-1.407-3.744-.939-.876-2.203-1.354-3.793-1.434a65.234 65.234 0 00-2.424-.04z" fill="#272727"/></g></svg>